<svg xmlns="http://www.w3.org/2000/svg" viewBox="0 0 32 32">
  <rect width="32" height="32" rx="7" fill="#0a0f1e"/>
  <g stroke="#7ab0ff" stroke-width="1.8" stroke-linecap="round">
    <!-- three main arms through the center -->
    <line x1="7" y1="16" x2="25" y2="16"/>
    <line x1="11.5" y1="8.2" x2="20.5" y2="23.8"/>
    <line x1="20.5" y1="8.2" x2="11.5" y2="23.8"/>
    <!-- branch ticks near each of the six tips -->
    <line x1="21.9" y1="16" x2="24.2" y2="17.9"/>
    <line x1="21.9" y1="16" x2="24.2" y2="14.1"/>
    <line x1="10.2" y1="16" x2="7.9" y2="17.9"/>
    <line x1="10.2" y1="16" x2="7.9" y2="14.1"/>
    <line x1="18.9" y1="21.1" x2="21.7" y2="22.1"/>
    <line x1="18.9" y1="21.1" x2="18.4" y2="24.1"/>
    <line x1="13.1" y1="10.9" x2="10.3" y2="9.9"/>
    <line x1="13.1" y1="10.9" x2="13.6" y2="7.9"/>
    <line x1="13.1" y1="21.1" x2="13.6" y2="24.1"/>
    <line x1="13.1" y1="21.1" x2="10.3" y2="22.1"/>
    <line x1="18.9" y1="10.9" x2="18.4" y2="7.9"/>
    <line x1="18.9" y1="10.9" x2="21.7" y2="9.9"/>
  </g>
  <circle cx="16" cy="16" r="2.2" fill="#4f8ef7"/>
</svg>
